<svg xmlns="http://www.w3.org/2000/svg" width="192" height="192" viewBox="0 0 192 192">
  <path d="M28.217 0C12.623 0 0 12.622 0 28.229v135.35c0 15.608 12.623 28.244 28.217 28.244H163.58c15.593 0 28.243-12.636 28.243-28.243V28.229C191.823 12.622 179.173 0 163.58 0Zm0 22.002h18.352v.095a22.3 22.3 0 0 1 15.395 5.558c.343.304.688.648 1.005.965 8.635 8.622 8.516 21.652-.238 31.766L33.828 92.143c-1.94 2.126-1.94 5.387 0 7.5l28.705 31.53.277.329c8.833 9.625 8.913 22.933.159 31.661-.317.343-.662.65-1.005.953-4.238 3.776-9.691 5.742-15.395 5.584v.095H28.217a6.215 6.215 0 0 1-6.222-6.22V28.22a6.213 6.213 0 0 1 6.222-6.217zm57.276.006h20.282v.095a22.32 22.32 0 0 1 15.409 5.56c.343.304.686.646 1.003.963 8.635 8.622 8.516 21.655-.238 31.768L93.377 92.466a5.605 5.605 0 0 0 .077 7.526l65.27 69.807h-73.23c9.836-16.623 7.618-38-6.668-53.409v-.004L60.18 95.908l18.435-20.28.394-.411c14.062-15.898 16.188-36.823 6.483-53.209Zm59.206.004h18.88a6.22 6.22 0 0 1 6.222 6.217v120.84l-50.083-53.526 18.102-19.911.382-.41c14.062-15.896 16.215-36.824 6.497-53.21" fill="white"/>
</svg>